name Run_200 02_newCOP3_v24.mot
datacolumns 19
datarows 61
range 0.008333 0.07083299999999999
DataType=double
version=3
OpenSimVersion=4.3-2021-08-27-4bc7ad9
endheader
time	R_ground_force_vx	R_ground_force_vy	R_ground_force_vz	R_ground_force_px	R_ground_force_py	R_ground_force_pz	L_ground_force_vx	L_ground_force_vy	L_ground_force_vz	L_ground_force_px	L_ground_force_py	L_ground_force_pz	R_ground_torque_x	R_ground_torque_y	R_ground_torque_z	L_ground_torque_x	L_ground_torque_y	L_ground_torque_z
0.008333	0	0	0	0	0	0	110.45134	550.936096	-30.769854	0.659704	0	-0.358849	0	0	0	-0	9.347973	-0
0.009375	0	0	0	0	0	0	110.264252	544.689453	-29.976639	0.658281	0	-0.35873	0	0	0	-0	8.945807	-0
0.010417	0	0	0	0	0	0	110.056709	538.237854	-29.161345	0.656796	0	-0.358608	0	0	0	-0	8.545106000000001	-0
0.011458	0	0	0	0	0	0	109.824173	531.610962	-28.330023	0.65526	0	-0.358483	0	0	0	-0	8.146504999999999	-0
0.0125	0	0	0	0	0	0	109.562141	524.832642	-27.488483	0.653681	0	-0.358356	0	0	0	-0	7.750629	-0
0.013542	0	0	0	0	0	0	109.266479	517.923279	-26.642275	0.65207	0	-0.35823	0	0	0	-0	7.358086	-0
0.014583	0	0	0	0	0	0	108.933678	510.900543	-25.796644	0.650433	0	-0.358105	0	0	0	-0	6.969469	-0
0.015625	0	0	0	0	0	0	108.560989	503.780121	-24.956495	0.648779	0	-0.357983	0	0	0	-0	6.585348	-0
0.016667	0	0	0	0	0	0	108.146553	496.576111	-24.126343	0.647112	0	-0.357865	0	0	0	-0	6.206275	-0
0.017708	0	0	0	0	0	0	107.689415	489.301208	-23.31028	0.645439	0	-0.357753	0	0	0	-0	5.832775	-0
0.01875	0	0	0	0	0	0	107.189552	481.966949	-22.511934	0.643763	0	-0.357647	0	0	0	-0	5.465348	-0
0.019792	0	0	0	0	0	0	106.647797	474.58374	-21.734438	0.642086	0	-0.357549	0	0	0	-0	5.104467	-0
0.020833	0	0	0	0	0	0	106.065788	467.161255	-20.980408	0.640412	0	-0.35746	0	0	0	-0	4.750575	-0
0.021875	0	0	0	0	0	0	105.445816	459.708405	-20.251934	0.638741	0	-0.35738	0	0	0	-0	4.404085	-0
0.022917	0	0	0	0	0	0	104.790741	452.233551	-19.550564	0.637074	0	-0.35731	0	0	0	-0	4.065377	-0
0.023958	0	0	0	0	0	0	104.103813	444.74472	-18.877312	0.6354109999999999	0	-0.35725	0	0	0	-0	3.7348	-0
0.025	0	0	0	0	0	0	103.388527	437.249634	-18.232674	0.633752	0	-0.3572	0	0	0	-0	3.412669	-0
0.026042	0	0	0	0	0	0	102.648521	429.755951	-17.61664	0.632096	0	-0.35716	0	0	0	-0	3.099267	-0
0.027083	0	0	0	0	0	0	101.887375	422.27121	-17.028732	0.630444	0	-0.35713	0	0	0	-0	2.794839	-0
0.028125	0	0	0	0	0	0	101.108551	414.802917	-16.468033	0.628794	0	-0.35711	0	0	0	-0	2.499601	-0
0.029167	0	0	0	0	0	0	100.315262	407.358612	-15.933229	0.627147	0	-0.357097	0	0	0	-0	2.213732	-0
0.030208	0	0	0	0	0	0	99.51039900000001	399.945892	-15.422665	0.625503	0	-0.357091	0	0	0	-0	1.937379	-0
0.03125	0	0	0	0	0	0	98.696426	392.572235	-14.93439	0.623862	0	-0.357091	0	0	0	-0	1.670655	-0
0.032292	0	0	0	0	0	0	97.875404	385.245087	-14.46622	0.622225	0	-0.357096	0	0	0	-0	1.413644	-0
0.033333	0	0	0	0	0	0	97.048889	377.971741	-14.015793	0.620595	0	-0.357103	0	0	0	-0	1.166397	-0
0.034375	0	0	0	0	0	0	96.217957	370.759216	-13.580632	0.618971	0	-0.357111	0	0	0	-0	0.928934	-0
0.035417	0	0	0	0	0	0	95.38318599999999	363.614227	-13.158206	0.617356	0	-0.357118	0	0	0	-0	0.70125	-0
0.036458	0	0	0	0	0	0	94.544701	356.542999	-12.745988	0.615752	0	-0.357122	0	0	0	-0	0.48331	-0
0.0375	0	0	0	0	0	0	93.702179	349.5513	-12.341516	0.61416	0	-0.35712	0	0	0	-0	0.275055	-0
0.038542	0	0	0	0	0	0	92.854927	342.644135	-11.942443	0.612583	0	-0.357112	0	0	0	-0	0.076403	-0
0.039583	0	0	0	0	0	0	92.001915	335.825958	-11.54659	0.611022	0	-0.357094	0	0	0	0	-0.112754	0
0.040625	0	0	0	0	0	0	91.141891	329.100372	-11.15199	0.609478	0	-0.357066	0	0	0	0	-0.29254	0
0.041667	0	0	0	0	0	0	90.273445	322.470154	-10.756927	0.607953	0	-0.357024	0	0	0	0	-0.463099	0
0.042708	0	0	0	0	0	0	89.395088	315.937347	-10.359964	0.606448	0	-0.356969	0	0	0	0	-0.624593	0
0.04375	0	0	0	0	0	0	88.505386	309.503113	-9.959974000000001	0.604963	0	-0.356898	0	0	0	0	-0.777196	0
0.044792	0	0	0	0	0	0	87.60302	303.167877	-9.556149	0.603497	0	-0.356812	0	0	0	0	-0.921098	0
0.045833	0	0	0	0	0	0	86.686859	296.931305	-9.148009999999999	0.602052	0	-0.356708	0	0	0	0	-1.056497	0
0.046875	0	0	0	0	0	0	85.756073	290.792419	-8.735412999999999	0.600627	0	-0.356588	0	0	0	0	-1.183603	0
0.047917	0	0	0	0	0	0	84.810143	284.749634	-8.318528000000001	0.599221	0	-0.356451	0	0	0	0	-1.302631	0
0.048958	0	0	0	0	0	0	83.84891500000001	278.800842	-7.89784	0.597834	0	-0.356298	0	0	0	0	-1.413802	0
0.05	0	0	0	0	0	0	82.87262699999999	272.943542	-7.474112	0.5964660000000001	0	-0.356129	0	0	0	0	-1.517342	0
0.051042	0	0	0	0	0	0	81.881897	267.174896	-7.048363	0.5951149999999999	0	-0.355947	0	0	0	0	-1.613477	0
0.052083	0	0	0	0	0	0	80.87769299999999	261.491882	-6.621833	0.593782	0	-0.355751	0	0	0	0	-1.702436	0
0.053125	0	0	0	0	0	0	79.861328	255.891266	-6.195942	0.592466	0	-0.355546	0	0	0	0	-1.784446	0
0.054167	0	0	0	0	0	0	78.834366	250.369781	-5.77225	0.591167	0	-0.355331	0	0	0	0	-1.85973	0
0.055208	0	0	0	0	0	0	77.79858400000001	244.92421	-5.352408	0.589884	0	-0.355111	0	0	0	0	-1.92851	0
0.05625	0	0	0	0	0	0	76.75588999999999	239.551453	-4.938116	0.588619	0	-0.354886	0	0	0	0	-1.991001	0
0.057292	0	0	0	0	0	0	75.70826	234.248596	-4.531075	0.5873699999999999	0	-0.354661	0	0	0	0	-2.047413	0
0.058333	0	0	0	0	0	0	74.657608	229.013046	-4.132946	0.586138	0	-0.354437	0	0	0	0	-2.097949	0
0.059375	0	0	0	0	0	0	73.605789	223.842545	-3.745302	0.584924	0	-0.354216	0	0	0	0	-2.142803	0
0.060417	0	0	0	0	0	0	72.55445899999999	218.735245	-3.369594	0.583727	0	-0.354002	0	0	0	0	-2.18216	0
0.061458	0	0	0	0	0	0	71.505089	213.689789	-3.007114	0.582547	0	-0.353796	0	0	0	0	-2.216196	0
0.0625	0	0	0	0	0	0	70.45887	208.705322	-2.658967	0.581386	0	-0.353599	0	0	0	0	-2.245077	0
0.063542	0	0	0	0	0	0	69.416725	203.781494	-2.326049	0.580241	0	-0.353413	0	0	0	0	-2.268957	0
0.064583	0	0	0	0	0	0	68.379318	198.918472	-2.009025	0.579113	0	-0.353239	0	0	0	0	-2.287978	0
0.065625	0	0	0	0	0	0	67.34702299999999	194.116928	-1.708322	0.578	0	-0.353076	0	0	0	0	-2.302273	0
0.066667	0	0	0	0	0	0	66.320007	189.37796	-1.424122	0.576901	0	-0.352924	0	0	0	0	-2.31196	0
0.067708	0	0	0	0	0	0	65.298233	184.703079	-1.156364	0.575813	0	-0.352782	0	0	0	0	-2.317147	0
0.06875000000000001	0	0	0	0	0	0	64.281548	180.094131	-0.9047539999999999	0.574734	0	-0.352648	0	0	0	0	-2.317927	0
0.06979200000000001	0	0	0	0	0	0	63.269699	175.553177	-0.668775	0.573661	0	-0.35252	0	0	0	0	-2.314385	0
0.07083299999999999	0	0	0	0	0	0	62.262421	171.082474	-0.447706	0.572589	0	-0.352395	0	0	0	0	-2.306589	0
